<mxfile host="app.diagrams.net" modified="2023-12-28T13:02:27.524Z" agent="Mozilla/5.0 (Windows NT 10.0; Win64; x64) AppleWebKit/537.36 (KHTML, like Gecko) Chrome/120.0.0.0 Safari/537.36 Edg/120.0.0.0" version="22.1.15" etag="QvKWO_8pTedof779cmIN" type="github">
  <diagram name="第 1 页" id="Cg6ue85B7t2hD9QzBfFh">
    <mxGraphModel>
      <root>
        <mxCell id="0" />
        <mxCell id="1" parent="0" />
      </root>
    </mxGraphModel>
  </diagram>
</mxfile>
